<svg id="Layer_1" data-name="Layer 1" xmlns="http://www.w3.org/2000/svg" viewBox="0 0 52.19 67.36"><defs><style>.cls-1{fill:#fff;}</style></defs><title>noice_logo_v2_b</title><g id="Noice2d"><path class="cls-1" d="M55,24.29V37.67H51V23.84a1.77,1.77,0,0,0-1.77-1.78H30.91V10h9.82V6H27.79a.89.89,0,0,0-.89.89V22.06H8.56a1.77,1.77,0,0,0-1.77,1.78V37.67h-4V24.29A6.22,6.22,0,0,1,9,18H22.88V4.66A2.68,2.68,0,0,1,25.56,2H43.4a1.34,1.34,0,0,1,1.34,1.34v9.37A1.34,1.34,0,0,1,43.4,14H34.93v4H48.81A6.22,6.22,0,0,1,55,24.29ZM43.85,27.85H38.94v9.82h4.91Zm-25,0H14v9.82h4.91ZM2.81,41.68V53.14A6.07,6.07,0,0,0,9,59.08H26.45v4H13.07a1.78,1.78,0,0,0-1.78,1.79v4.46H46.52V64.88a1.78,1.78,0,0,0-1.78-1.79H31.36v-4H48.81A6.07,6.07,0,0,0,55,53.14V41.68Z" transform="translate(-2.81 -1.98)"/></g></svg>