<svg id="Layer_1" data-name="Layer 1" xmlns="http://www.w3.org/2000/svg" viewBox="0 0 206.71 186.32"><defs><style>.cls-1{fill:#421e00;}.cls-2{fill:#512800;}</style></defs><title>noice_logo_v2</title><g id="Noice2d_Game_Studio" data-name="Noice2d Game Studio"><path class="cls-1" d="M300.68,197.21H269.56v-9h19a3,3,0,0,0,3-3v-21a3,3,0,0,0-3-3h-40a6,6,0,0,0-6,6v30H211.45a13.94,13.94,0,0,0-13.89,14v30h8.93v-31a4,4,0,0,1,4-4h41.11v-34a2,2,0,0,1,2-2h29v9h-22v27h41.11a4,4,0,0,1,4,4v31h8.92v-30A13.93,13.93,0,0,0,300.68,197.21Z" transform="translate(-152.71 -161.21)"/><rect class="cls-1" x="125.86" y="58" width="11" height="22"/><rect class="cls-1" x="69.86" y="58" width="11" height="22"/><path class="cls-1" d="M197.56,250.21v25.68c0,7.35,6.22,13.32,13.89,13.32h39.11v9h-30a4,4,0,0,0-4,4v10h79v-10a4,4,0,0,0-4-4h-30v-9h39.12c7.67,0,13.88-6,13.88-13.32V250.21Z" transform="translate(-152.71 -161.21)"/><path class="cls-1" d="M155.93,338.72v8.81h-3.22v-15h3.22l4.3,8.81v-8.81h3.22v15h-3.22Z" transform="translate(-152.71 -161.21)"/><path class="cls-1" d="M176.37,343.44c0,2.73-1.44,4.09-4.3,4.09h-2.15c-2.86,0-4.3-1.36-4.3-4.09v-6.87c0-2.72,1.44-4.08,4.3-4.08h2.15c2.86,0,4.3,1.36,4.3,4.08Zm-4.3,1.08a1,1,0,0,0,1.07-1.08v-6.87a.94.94,0,0,0-1.07-1.07h-2.15a.94.94,0,0,0-1.07,1.07v6.87a1,1,0,0,0,1.07,1.08Z" transform="translate(-152.71 -161.21)"/><path class="cls-1" d="M181.76,347.53h-3.22v-15h3.22Z" transform="translate(-152.71 -161.21)"/><path class="cls-1" d="M188.23,344.52h5.37v3h-5.37q-4.29,0-4.29-4.09v-6.87q0-4.08,4.29-4.08h5.37v3h-5.37a.94.94,0,0,0-1.07,1.07v6.87A1,1,0,0,0,188.23,344.52Z" transform="translate(-152.71 -161.21)"/><path class="cls-1" d="M199,338.5h5.37v3H199v3h6.45v3h-9.67v-15h9.67v3H199Z" transform="translate(-152.71 -161.21)"/><path class="cls-1" d="M213,335.5h-5.37v-3H213q4.31,0,4.3,4.08v.86q0,4.08-4.3,4.08h-1.07a1,1,0,0,0-1.08,1.07v1.94h6.45v3h-9.67v-4.95q0-4.08,4.3-4.08H213a1,1,0,0,0,1.08-1.07v-.86A1,1,0,0,0,213,335.5Z" transform="translate(-152.71 -161.21)"/><path class="cls-1" d="M230.21,343.44c0,2.73-1.44,4.09-4.3,4.09h-6.45v-15h6.45c2.86,0,4.3,1.36,4.3,4.08Zm-4.3,1.08a1,1,0,0,0,1.07-1.08v-6.87a.94.94,0,0,0-1.07-1.07h-3.22v9Z" transform="translate(-152.71 -161.21)"/><path class="cls-1" d="M241,332.49h5.37v3H241a1,1,0,0,0-1.08,1.07v6.87a1,1,0,0,0,1.08,1.08h3.22v-3h-2.15v-3h5.37v9H241q-4.31,0-4.3-4.09v-6.87Q236.7,332.49,241,332.49Z" transform="translate(-152.71 -161.21)"/><path class="cls-1" d="M257.2,344.73h-4.42l-.8,2.8h-3.22l4.3-15h3.86l4.3,15H258Zm-3.56-3h2.7L255,337Z" transform="translate(-152.71 -161.21)"/><path class="cls-1" d="M265.76,338.72v8.81h-3.23v-15h3.23l3.22,6.6,3.22-6.6h3.23v15H272.2v-8.81l-3.22,6.6Z" transform="translate(-152.71 -161.21)"/><path class="cls-1" d="M280.82,338.5h5.37v3h-5.37v3h6.45v3H277.6v-15h9.67v3h-6.45Z" transform="translate(-152.71 -161.21)"/><path class="cls-1" d="M298.06,332.49h5.37v3h-5.37a.94.94,0,0,0-1.07,1.07v.86a1,1,0,0,0,1.07,1.07h1.08q4.29,0,4.29,4.08v.86q0,4.1-4.29,4.09h-5.38v-3h5.38a1,1,0,0,0,1.07-1.08v-.86a1,1,0,0,0-1.07-1.07h-1.08c-2.86,0-4.3-1.36-4.3-4.08v-.86C293.76,333.85,295.2,332.49,298.06,332.49Z" transform="translate(-152.71 -161.21)"/><path class="cls-1" d="M308.83,335.5h-3.22v-3h9.67v3h-3.23v12h-3.22Z" transform="translate(-152.71 -161.21)"/><path class="cls-1" d="M325,343.44V332.49h3.22v10.95q0,4.1-4.3,4.09h-2.14q-4.31,0-4.3-4.09V332.49h3.22v10.95a1,1,0,0,0,1.08,1.08h2.14A1,1,0,0,0,325,343.44Z" transform="translate(-152.71 -161.21)"/><path class="cls-1" d="M341.11,343.44c0,2.73-1.44,4.09-4.3,4.09h-6.45v-15h6.45c2.86,0,4.3,1.36,4.3,4.08Zm-4.3,1.08a1,1,0,0,0,1.07-1.08v-6.87a.94.94,0,0,0-1.07-1.07h-3.22v9Z" transform="translate(-152.71 -161.21)"/><path class="cls-1" d="M346.5,347.53h-3.22v-15h3.22Z" transform="translate(-152.71 -161.21)"/><path class="cls-1" d="M359.42,343.44q0,4.1-4.3,4.09H353q-4.31,0-4.3-4.09v-6.87q0-4.08,4.3-4.08h2.14q4.31,0,4.3,4.08Zm-4.3,1.08a1,1,0,0,0,1.08-1.08v-6.87a1,1,0,0,0-1.08-1.07H353a1,1,0,0,0-1.08,1.07v6.87a1,1,0,0,0,1.08,1.08Z" transform="translate(-152.71 -161.21)"/></g><g id="Noice2d"><path class="cls-2" d="M314.46,211.21v30h-8.93v-31a4,4,0,0,0-4-4H260.46v-27h22v-9h-29a2,2,0,0,0-2,2v34H210.35a4,4,0,0,0-4,4v31h-8.92v-30a13.93,13.93,0,0,1,13.88-14h31.12v-30a6,6,0,0,1,6-6h40a3,3,0,0,1,3,3v21a3,3,0,0,1-3,3h-19v9h31.12A13.94,13.94,0,0,1,314.46,211.21Zm-25,8h-11v22h11Zm-56,0h-11v22h11Zm-36,31v25.68c0,7.35,6.21,13.32,13.88,13.32h39.12v9h-30a4,4,0,0,0-4,4v10h79v-10a4,4,0,0,0-4-4h-30v-9h39.12c7.66,0,13.88-6,13.88-13.32V250.21Z" transform="translate(-152.71 -161.21)"/></g></svg>