<?xml version="1.0" encoding="utf-8"?>
<!-- Generator: Adobe Illustrator 21.1.0, SVG Export Plug-In . SVG Version: 6.00 Build 0)  -->
<svg version="1.1" id="圖層_1" xmlns="http://www.w3.org/2000/svg" xmlns:xlink="http://www.w3.org/1999/xlink" x="0px" y="0px"
	 viewBox="0 0 500 500" style="enable-background:new 0 0 500 500;" xml:space="preserve">
<style type="text/css">
	.st0{fill:none;}
	.st1{fill:#351500;}
	.st2{fill:#FFE5D3;}
	.st3{fill:#965100;}
	.st4{fill:#FFF9E9;}
	.st5{fill:#FFFFFF;}
</style>
<g>
	<rect x="396" y="178" class="st0" width="72" height="72"/>
	<polygon class="st1" points="324,274 348,274 348,178 348,154 252,154 228,154 228,274 252,274 252,178 324,178 	"/>
	<path class="st1" d="M396,154h-24v120h24h72h24v-24v-72v-24H396z M468,250h-72v-72h72V250z"/>
	<rect x="228" y="298" class="st1" width="24" height="120"/>
	<polygon class="st1" points="276,322 276,394 276,418 372,418 372,394 300,394 300,322 372,322 372,298 276,298 	"/>
	<polygon class="st1" points="396,322 396,418 420,418 492,418 492,394 420,394 420,370 492,370 492,346 420,346 420,322 492,322 
		492,298 396,298 	"/>
</g>
<g>
	<rect x="132" y="82" class="st0" width="12" height="24"/>
	<polygon class="st0" points="120,130 132,130 132,118 132,106 120,106 120,118 	"/>
	<rect x="144" y="58" class="st0" width="12" height="24"/>
	<rect x="156" y="34" class="st0" width="12" height="24"/>
	<polygon class="st0" points="168,142 168,130 144,130 132,130 132,154 120,154 120,130 108,130 108,142 96,142 96,130 36,130 
		36,142 24,142 24,322 48,322 48,334 72,334 72,346 84,346 84,358 96,358 96,406 84,406 84,418 60,418 60,430 36,430 36,442 
		168,442 168,430 144,430 144,418 120,418 120,406 108,406 108,358 120,358 120,346 132,346 132,334 156,334 156,322 180,322 
		180,142 	"/>
	<rect x="24" y="130" class="st1" width="12" height="12"/>
	<rect x="12" y="142" class="st1" width="12" height="180"/>
	<polygon class="st1" points="96,142 108,142 108,130 120,130 120,118 120,106 108,106 108,118 36,118 36,130 96,130 	"/>
	<rect x="120" y="82" class="st1" width="12" height="24"/>
	<rect x="132" y="58" class="st1" width="12" height="24"/>
	<rect x="144" y="34" class="st1" width="12" height="24"/>
	<rect x="168" y="34" class="st1" width="12" height="24"/>
	<rect x="156" y="58" class="st1" width="12" height="24"/>
	<rect x="144" y="82" class="st1" width="12" height="24"/>
	<polygon class="st1" points="132,118 132,130 144,130 168,130 168,118 144,118 144,106 132,106 	"/>
	<rect x="168" y="130" class="st1" width="12" height="12"/>
	<rect x="180" y="142" class="st1" width="12" height="180"/>
	<rect x="24" y="322" class="st1" width="24" height="12"/>
	<rect x="48" y="334" class="st1" width="24" height="12"/>
	<rect x="132" y="334" class="st1" width="24" height="12"/>
	<rect x="156" y="322" class="st1" width="24" height="12"/>
	<rect x="72" y="346" class="st1" width="12" height="12"/>
	<rect x="120" y="346" class="st1" width="12" height="12"/>
	<rect x="84" y="358" class="st1" width="12" height="48"/>
	<rect x="108" y="358" class="st1" width="12" height="48"/>
	<rect x="144" y="418" class="st1" width="24" height="12"/>
	<rect x="120" y="406" class="st1" width="24" height="12"/>
	<rect x="60" y="406" class="st1" width="24" height="12"/>
	<rect x="36" y="418" class="st1" width="24" height="12"/>
	<rect x="36" y="442" class="st1" width="132" height="12"/>
	<rect x="168" y="430" class="st1" width="12" height="12"/>
	<rect x="24" y="430" class="st1" width="12" height="12"/>
	<rect x="156" y="22" class="st1" width="12" height="12"/>
	<rect x="120" y="130" class="st1" width="12" height="24"/>
</g>
<polygon class="st2" points="132,130 132,154 108,154 108,142 96,142 96,130 36,130 36,214 36,226 36,238 48,238 48,226 96,226 
	108,226 132,226 132,178 156,178 156,238 168,238 168,178 168,130 "/>
<polygon class="st1" points="144,286 144,274 60,274 60,286 36,286 36,310 48,310 48,322 72,322 72,334 84,334 84,346 120,346 
	120,334 132,334 132,322 156,322 156,310 168,310 168,286 "/>
<polygon class="st3" points="156,238 156,250 132,250 132,226 48,226 48,238 36,238 36,274 36,286 60,286 60,274 132,274 144,274 
	144,286 156,286 168,286 168,274 168,250 168,238 "/>
<g>
	<polygon class="st4" points="168,178 168,310 156,310 156,322 168,322 180,322 180,310 180,178 	"/>
	<rect x="132" y="322" class="st4" width="24" height="12"/>
	<rect x="120" y="334" class="st4" width="12" height="12"/>
	<rect x="108" y="346" class="st4" width="12" height="12"/>
	<polygon class="st4" points="96,406 84,406 84,418 60,418 60,430 36,430 36,442 168,442 168,430 144,430 144,418 120,418 120,406 
		108,406 108,358 96,358 	"/>
</g>
<g>
	<rect x="24" y="142" class="st5" width="12" height="180"/>
	<rect x="36" y="310" class="st5" width="12" height="12"/>
	<rect x="48" y="322" class="st5" width="24" height="12"/>
	<rect x="72" y="334" class="st5" width="12" height="12"/>
	<rect x="84" y="346" class="st5" width="24" height="12"/>
	<rect x="132" y="178" class="st5" width="24" height="72"/>
	<rect x="168" y="142" class="st5" width="12" height="36"/>
	<rect x="108" y="130" class="st5" width="12" height="24"/>
	<rect x="120" y="106" class="st5" width="12" height="24"/>
	<rect x="132" y="82" class="st5" width="12" height="24"/>
	<rect x="144" y="58" class="st5" width="12" height="24"/>
	<rect x="156" y="34" class="st5" width="12" height="24"/>
</g>
</svg>
