<?xml version="1.0" encoding="utf-8"?>
<!-- Generator: Adobe Illustrator 21.1.0, SVG Export Plug-In . SVG Version: 6.00 Build 0)  -->
<svg version="1.1" id="圖層_1" xmlns="http://www.w3.org/2000/svg" xmlns:xlink="http://www.w3.org/1999/xlink" x="0px" y="0px"
	 viewBox="0 0 500 500" style="enable-background:new 0 0 500 500;" xml:space="preserve">
<style type="text/css">
	.st0{fill:none;}
	.st1{fill:#351500;}
	.st2{fill:#FFE5D3;}
	.st3{fill:#965100;}
	.st4{fill:#FFF9E9;}
	.st5{fill:#FFFFFF;}
</style>
<g>
	<rect x="379.4" y="144.4" class="st0" width="65.2" height="65.2"/>
	<polygon class="st1" points="314.2,231.4 335.9,231.4 335.9,144.4 335.9,122.6 248.9,122.6 227.2,122.6 227.2,231.4 248.9,231.4 
		248.9,144.4 314.2,144.4 	"/>
	<path class="st1" d="M379.4,122.6h-21.7v108.7h21.7h65.2h21.7v-21.7v-65.2v-21.7H379.4z M444.7,209.6h-65.2v-65.2h65.2V209.6z"/>
	<rect x="227.2" y="253.1" class="st1" width="21.7" height="108.7"/>
	<polygon class="st1" points="270.7,274.8 270.7,340.1 270.7,361.8 357.7,361.8 357.7,340.1 292.4,340.1 292.4,274.8 357.7,274.8 
		357.7,253.1 270.7,253.1 	"/>
	<polygon class="st1" points="379.4,274.8 379.4,361.8 401.2,361.8 466.4,361.8 466.4,340.1 401.2,340.1 401.2,318.3 466.4,318.3 
		466.4,296.6 401.2,296.6 401.2,274.8 466.4,274.8 466.4,253.1 379.4,253.1 	"/>
</g>
<g>
	<rect x="140.2" y="57.4" class="st0" width="10.9" height="21.7"/>
	<polygon class="st0" points="129.3,100.9 140.2,100.9 140.2,90 140.2,79.1 129.3,79.1 129.3,90 	"/>
	<rect x="151.1" y="35.6" class="st0" width="10.9" height="21.7"/>
	<rect x="162" y="13.9" class="st0" width="10.9" height="21.7"/>
	<polygon class="st0" points="172.8,111.7 172.8,100.9 151.1,100.9 140.2,100.9 140.2,122.6 129.3,122.6 129.3,100.9 118.5,100.9 
		118.5,111.7 107.6,111.7 107.6,100.9 53.2,100.9 53.2,111.7 42.3,111.7 42.3,274.8 64.1,274.8 64.1,285.7 85.8,285.7 85.8,296.6 
		96.7,296.6 96.7,307.5 107.6,307.5 107.6,351 96.7,351 96.7,361.8 75,361.8 75,372.7 53.2,372.7 53.2,383.6 172.8,383.6 
		172.8,372.7 151.1,372.7 151.1,361.8 129.3,361.8 129.3,351 118.5,351 118.5,307.5 129.3,307.5 129.3,296.6 140.2,296.6 
		140.2,285.7 162,285.7 162,274.8 183.7,274.8 183.7,111.7 	"/>
	<rect x="42.3" y="100.9" class="st1" width="10.9" height="10.9"/>
	<rect x="31.5" y="111.7" class="st1" width="10.9" height="163.1"/>
	<polygon class="st1" points="107.6,111.7 118.5,111.7 118.5,100.9 129.3,100.9 129.3,90 129.3,79.1 118.5,79.1 118.5,90 53.2,90 
		53.2,100.9 107.6,100.9 	"/>
	<rect x="129.3" y="57.4" class="st1" width="10.9" height="21.7"/>
	<rect x="140.2" y="35.6" class="st1" width="10.9" height="21.7"/>
	<rect x="151.1" y="13.9" class="st1" width="10.9" height="21.7"/>
	<rect x="172.8" y="13.9" class="st1" width="10.9" height="21.7"/>
	<rect x="162" y="35.6" class="st1" width="10.9" height="21.7"/>
	<rect x="151.1" y="57.4" class="st1" width="10.9" height="21.7"/>
	<polygon class="st1" points="140.2,90 140.2,100.9 151.1,100.9 172.8,100.9 172.8,90 151.1,90 151.1,79.1 140.2,79.1 	"/>
	<rect x="172.8" y="100.9" class="st1" width="10.9" height="10.9"/>
	<rect x="183.7" y="111.7" class="st1" width="10.9" height="163.1"/>
	<rect x="42.3" y="274.8" class="st1" width="21.7" height="10.9"/>
	<rect x="64.1" y="285.7" class="st1" width="21.7" height="10.9"/>
	<rect x="140.2" y="285.7" class="st1" width="21.7" height="10.9"/>
	<rect x="162" y="274.8" class="st1" width="21.7" height="10.9"/>
	<rect x="85.8" y="296.6" class="st1" width="10.9" height="10.9"/>
	<rect x="129.3" y="296.6" class="st1" width="10.9" height="10.9"/>
	<rect x="96.7" y="307.5" class="st1" width="10.9" height="43.5"/>
	<rect x="118.5" y="307.5" class="st1" width="10.9" height="43.5"/>
	<rect x="151.1" y="361.8" class="st1" width="21.7" height="10.9"/>
	<rect x="129.3" y="351" class="st1" width="21.7" height="10.9"/>
	<rect x="75" y="351" class="st1" width="21.7" height="10.9"/>
	<rect x="53.2" y="361.8" class="st1" width="21.7" height="10.9"/>
	<rect x="53.2" y="383.6" class="st1" width="119.6" height="10.9"/>
	<rect x="172.8" y="372.7" class="st1" width="10.9" height="10.9"/>
	<rect x="42.3" y="372.7" class="st1" width="10.9" height="10.9"/>
	<rect x="162" y="3" class="st1" width="10.9" height="10.9"/>
	<rect x="129.3" y="100.9" class="st1" width="10.9" height="21.7"/>
</g>
<polygon class="st2" points="140.2,100.9 140.2,122.6 118.5,122.6 118.5,111.7 107.6,111.7 107.6,100.9 53.2,100.9 53.2,177 
	53.2,187.9 53.2,198.7 64.1,198.7 64.1,187.9 107.6,187.9 118.5,187.9 140.2,187.9 140.2,144.4 162,144.4 162,198.7 172.8,198.7 
	172.8,144.4 172.8,100.9 "/>
<polygon class="st1" points="151.1,242.2 151.1,231.4 75,231.4 75,242.2 53.2,242.2 53.2,264 64.1,264 64.1,274.8 85.8,274.8 
	85.8,285.7 96.7,285.7 96.7,296.6 129.3,296.6 129.3,285.7 140.2,285.7 140.2,274.8 162,274.8 162,264 172.8,264 172.8,242.2 "/>
<polygon class="st3" points="162,198.7 162,209.6 140.2,209.6 140.2,187.9 64.1,187.9 64.1,198.7 53.2,198.7 53.2,231.4 53.2,242.2 
	75,242.2 75,231.4 140.2,231.4 151.1,231.4 151.1,242.2 162,242.2 172.8,242.2 172.8,231.4 172.8,209.6 172.8,198.7 "/>
<g>
	<polygon class="st4" points="172.8,144.4 172.8,264 162,264 162,274.8 172.8,274.8 183.7,274.8 183.7,264 183.7,144.4 	"/>
	<rect x="140.2" y="274.8" class="st4" width="21.7" height="10.9"/>
	<rect x="129.3" y="285.7" class="st4" width="10.9" height="10.9"/>
	<rect x="118.5" y="296.6" class="st4" width="10.9" height="10.9"/>
	<polygon class="st4" points="107.6,351 96.7,351 96.7,361.8 75,361.8 75,372.7 53.2,372.7 53.2,383.6 172.8,383.6 172.8,372.7 
		151.1,372.7 151.1,361.8 129.3,361.8 129.3,351 118.5,351 118.5,307.5 107.6,307.5 	"/>
</g>
<g>
	<rect x="42.3" y="111.7" class="st5" width="10.9" height="163.1"/>
	<rect x="53.2" y="264" class="st5" width="10.9" height="10.9"/>
	<rect x="64.1" y="274.8" class="st5" width="21.7" height="10.9"/>
	<rect x="85.8" y="285.7" class="st5" width="10.9" height="10.9"/>
	<rect x="96.7" y="296.6" class="st5" width="21.7" height="10.9"/>
	<rect x="140.2" y="144.4" class="st5" width="21.7" height="65.2"/>
	<rect x="172.8" y="111.7" class="st5" width="10.9" height="32.6"/>
	<rect x="118.5" y="100.9" class="st5" width="10.9" height="21.7"/>
	<rect x="129.3" y="79.1" class="st5" width="10.9" height="21.7"/>
	<rect x="140.2" y="57.4" class="st5" width="10.9" height="21.7"/>
	<rect x="151.1" y="35.6" class="st5" width="10.9" height="21.7"/>
	<rect x="162" y="13.9" class="st5" width="10.9" height="21.7"/>
</g>
<g>
	<path class="st1" d="M66.3,471.2c-3.5,5.5-7.6,10.9-11.7,15.4l25.5-1.5c-2.2-3.2-4.5-6.4-6.7-9.1l6.9-3c5.5,6.3,11.2,14.6,14,20.3
		l-7.3,3.8c-0.7-1.6-1.6-3.3-2.6-5.2c-31.8,2.5-36.2,2.7-39.3,3.9c-0.4-1.5-1.7-5.3-2.6-7.4c1.6-0.4,3-1.6,4.9-3.8
		c1.5-1.6,6-7.2,9.5-13.4H39v-7.6h24.5v-9H43.8v-7.6h19.7v-8.7h7.9v8.7h20.3v7.6H71.5v9h24.8v7.6H66.3z"/>
	<path class="st1" d="M117.2,471.1c-2.9,6-6.4,12.7-9.6,18.2l-6.4-4.6c2.9-4.4,7.1-11.5,10.4-18.2L117.2,471.1z M112.7,456.8
		c-2.3-2.5-7.6-6.1-11.5-8.4l4.4-5.5c3.8,2,9.2,5.4,11.8,7.7L112.7,456.8z M133.4,454.9c-1.9,16.5-6.9,28.8-15.6,35.7
		c-1-1.8-3.2-4.7-4.9-6.2c6.1-4.3,10.4-13.1,12.4-23.1h-9v-7.4h11.3l1.3-0.1L133.4,454.9z M159.3,453.9c-3.6,4.7-8.2,9.6-12,13.1
		c3.3,7.2,7.8,13.1,14.1,16.6c-1.6,1.5-4.1,4.5-5.3,6.6c-6.5-4.6-10.8-11.8-13.9-20.5v18.4c0,4-0.8,6.1-3.2,7.4
		c-2.3,1.4-5.7,1.7-10.2,1.7c-0.4-2.2-1.8-5.8-3-7.9c3.2,0.1,6.2,0.1,7.3,0.1c1,0,1.4-0.3,1.4-1.3v-49.5h7.7v12
		c0.7,3.3,1.5,6.6,2.5,9.7c3-3.2,6.1-7,8.1-10.1L159.3,453.9z"/>
	<path class="st1" d="M179.9,467.9c-0.9,5.9-2.5,12-4.5,17c1.1,0.6,2.3,1.6,4.1,2.6c4.3,2.5,10.4,3,17.8,3c7.5,0,18.8-0.7,25.8-1.6
		c-0.8,1.8-2,5.4-2.1,7.3c-5.1,0.3-16.6,0.7-24,0.7c-8.4,0-13.9-0.6-18.5-3.2c-2.7-1.5-4.9-3.6-6.3-3.6c-1.2,0-3,4.3-4.1,7.8
		l-4.8-6.9c2.1-2.8,4.4-5,6.2-6.2c1.3-3.1,2.3-7.2,3.1-11.1h-6.9c1.3-3.7,2.7-8.8,3.9-13.7h-5v-6.7h12.9c-1.1,4.4-2.5,9.5-3.7,13.9
		h2.3l0.9-0.2L179.9,467.9z M170.6,451.4c-0.7-2.8-2.1-7.4-3-10.8l5.7-1.7c1.1,3.4,2.4,7.7,3.3,10.5L170.6,451.4z M184.6,452.8h-5.2
		v-6.2h8c-0.5-2-1.2-4.4-1.9-6.3l6.7-1.2c0.9,2.3,1.9,5.3,2.5,7.5h5.8v3.5c2.1-3.5,3.8-7.7,4.9-12l6.3,1.7c-0.5,1.6-1.1,3.2-1.6,4.9
		h12.2v6.2h-14.9c-0.7,1.4-1.4,2.6-2.1,3.8h11.8l1.2-0.4l4,3.1c-2,2.5-4.5,5.1-7,7.3v2.5h7.3v5.9h-7.3v7.4c0,3-0.4,4.7-2.5,5.7
		c-1.9,1-4.5,1.1-8.1,1.1c-0.2-1.8-1.1-4.4-2.1-6.2c2.3,0.1,4.7,0.1,5.4,0.1c0.8,0,0.9-0.2,0.9-0.7v-7.4h-7.1v-5.9h7.1v-3.9
		c1.1-0.9,2.2-2,3.2-3.1h-8.6v-4c-1.2-1.1-3.1-2.5-4.3-3.4h-8.6v4.6h9.9v2.6c-0.4,17-0.8,23.2-2.2,25.1c-0.9,1.5-2,2.1-3.6,2.3
		c-1.3,0.3-3.3,0.3-5.5,0.3c-0.1-1.8-0.7-4.4-1.6-6c1.6,0.2,2.9,0.2,3.7,0.2c0.7,0,1.1-0.2,1.6-0.8c0.8-1.1,1.1-5.5,1.3-17.6h-3.6
		c-0.3,7.6-1.7,17-7.6,23.3c-0.9-1.3-3-3.4-4.3-4.4c5.4-6.2,5.9-15.6,5.9-22.1V452.8z"/>
	<path class="st1" d="M236.2,465.9c0,8.9-0.8,22.3-4.9,30.9c-1-1.1-3.8-3.3-5-4c3.5-7.8,3.8-18.9,3.8-26.9v-17.1h11.7v-10.3h6.9v3.2
		h13v4.8h-13v2.3h9.5l0.9-0.2l4.5,0.8c-0.7,3.4-1.7,7.4-2.6,10l-5.3-0.9c0.3-1.3,0.7-3,1-4.9H249v2.6l5.6-0.4l0.5,3.7L249,460v0.4
		c0,1.3,0.1,1.9,1.5,1.9h4.5c1.2,0,3.5-0.1,4.4-0.4c0.1,1.6,0.2,2.7,0.4,4.1c-0.9,0.4-2.9,0.4-4.5,0.4h-6.7c-4.7,0-5.6-2.1-5.6-6
		l-5.9,0.6l-0.5-3.8l6.4-0.6v-3.2h-6.8V465.9z M285.2,465.4c-1.8,6.4-4.7,12.9-8.4,18.5c0.8,2.8,1.8,4.4,2.8,4.5
		c0.9,0,1.6-3,1.9-8.3c1.1,1.5,4,3.5,5.2,4.2c-1.6,10.5-4.7,12.9-7.1,12.8c-3.3-0.1-5.7-2.6-7.7-6.9c-1.9,2-3.8,3.8-5.9,5.3
		c-1-1.3-2.6-2.9-4.1-4v2.6c-9.2,0.8-18.8,1.6-25.9,2.1l-0.7-5.4l6.8-0.4c-0.4-1.5-0.9-3.3-1.5-4.7l5-0.9c0.7,1.6,1.4,3.6,1.8,5.2
		l3.4-0.3c0.8-1.8,1.7-3.8,2.2-5.4l6.2,0.9c-0.8,1.4-1.6,2.8-2.5,4.1l5.1-0.4v0.9c2.7-1.9,5.3-4.3,7.6-7.2
		c-1.3-5.4-2.1-12.2-2.6-20.1l-3.9,0.5l-0.9-6.6l4.4-0.6c-0.3-5.4-0.4-11.1-0.6-17.2h6.9c0,5.7,0.2,11.1,0.4,16.3l12.2-1.6l0.8,6.5
		l-12.6,1.7c0.4,4.7,0.8,9.1,1.3,12.8c2-3.8,3.7-7.9,4.8-12L285.2,465.4z M262.1,472.4h-24.6v-4.6h24.6V472.4z M238.8,484.2v-10
		h21.9v10H238.8z M244.4,480.7h10.4v-2.9h-10.4V480.7z M279.7,452.6c-1.2-2.6-3.7-7.2-5.6-10.4l5.5-2.7c2,3.2,4.7,7.4,5.9,10
		L279.7,452.6z"/>
	<path class="st1" d="M348.6,485.5v7.6h-57.3v-7.6h24v-32.6h-20.6v-7.8H345v7.8h-21.2v32.6H348.6z"/>
	<path class="st1" d="M374.5,441.1c-1.6,4.4-3.7,8.9-6.1,13.1v43.2h-7.6v-31.5c-1.3,1.6-2.6,3.2-3.9,4.5c-0.7-1.8-2.8-6.1-4.2-8
		c5.7-5.7,11.2-14.6,14.4-23.6L374.5,441.1z M394.5,455.9v6.6h16.3v6.8h-16.3v7.1h17.2v6.9h-17.2v14h-7.7v-41.5h-2.4
		c-2.5,4.7-5.4,8.9-8.3,12.2c-1.2-1.4-4.2-4-5.7-5.2c5.5-5.7,10.5-14.7,13.4-23.8l7.3,1.8c-0.9,2.6-1.9,5.2-3.1,7.8h24.4v7.1H394.5z
		"/>
	<path class="st1" d="M474,489.1v6.6h-55.8v-6.6H442v-5.4h-18.3v-6.4H442v-4.8h7.7v4.8H469v6.4h-19.3v5.4H474z M425.3,455.6h-7v-12
		h24.2c-0.5-1.3-1.1-2.7-1.7-3.8l7.3-2.1c1.1,1.8,2.1,4,2.8,5.9h22.4v12h-6.7v5h-7.4c3.8,3.1,8.2,7,10.5,9.8l-5.9,4
		c-0.8-1.1-2-2.5-3.3-4c-28.2,2.3-31.6,2.5-34.1,3.5c-0.4-1.4-1.4-4.7-2.1-6.5c1.4-0.2,2.8-1,4.5-2.3c1-0.7,3.3-2.4,5.8-4.7h-9.3
		V455.6z M425.7,450.4v3.8h40.2v-3.8H425.7z M455.3,465.5c-1.1-1-2.3-1.9-3.3-2.8l3.1-2.1h-10.9c-2.3,2.1-4.8,4.2-7.3,6.1
		L455.3,465.5z"/>
</g>
</svg>
